<svg width="300" height="300" viewBox="0 0 300 300" fill="none" xmlns="http://www.w3.org/2000/svg">
<g clip-path="url(#clip0_8_11)">
<path d="M252 0H48C21.4903 0 0 21.4903 0 48V252C0 278.51 21.4903 300 48 300H252C278.51 300 300 278.51 300 252V48C300 21.4903 278.51 0 252 0Z" fill="white"/>
<path d="M116.701 148.214H79.4347L73.4607 165.851H48L84.1285 66H112.291L148.42 165.851H122.675L116.701 148.214ZM110.442 129.438L98.0676 92.8831L85.8354 129.438H110.442Z" fill="#FFCD34"/>
<path d="M201.5 131.5C201.5 110.789 184.711 94 164 94C143.289 94 126.5 110.789 126.5 131.5C126.5 152.211 143.289 169 164 169C184.711 169 201.5 152.211 201.5 131.5Z" fill="#E83434"/>
<path d="M158.691 117.787V122.161H151.491V144.806H146.071V122.161H138.871V117.787H158.691ZM175.187 145.077C172.658 145.077 170.335 144.483 168.219 143.297C166.104 142.11 164.426 140.471 163.187 138.381C161.948 136.265 161.329 133.877 161.329 131.219C161.329 128.587 161.948 126.226 163.187 124.135C164.426 122.02 166.104 120.367 168.219 119.181C170.335 117.994 172.658 117.4 175.187 117.4C177.742 117.4 180.064 117.994 182.155 119.181C184.27 120.367 185.935 122.02 187.148 124.135C188.387 126.226 189.006 128.587 189.006 131.219C189.006 133.877 188.387 136.265 187.148 138.381C185.935 140.471 184.27 142.11 182.155 143.297C180.039 144.483 177.716 145.077 175.187 145.077ZM175.187 140.239C176.813 140.239 178.245 139.877 179.484 139.155C180.723 138.406 181.69 137.349 182.387 135.981C183.084 134.612 183.432 133.025 183.432 131.219C183.432 129.413 183.084 127.838 182.387 126.497C181.69 125.129 180.723 124.083 179.484 123.361C178.245 122.639 176.813 122.277 175.187 122.277C173.561 122.277 172.116 122.639 170.852 123.361C169.613 124.083 168.645 125.129 167.948 126.497C167.252 127.838 166.903 129.413 166.903 131.219C166.903 133.025 167.252 134.612 167.948 135.981C168.645 137.349 169.613 138.406 170.852 139.155C172.116 139.877 173.561 140.239 175.187 140.239Z" fill="white"/>
<path d="M213.111 148.23H257.303V168.716H184.723V149.693L228.622 86.4783H184.723V65.992H257.303V85.015L213.111 148.23Z" fill="#FFCD34"/>
<path d="M34.8904 183.758C37.926 183.758 40.5889 184.352 42.8793 185.538C45.1973 186.724 46.9772 188.421 48.219 190.629C49.4884 192.809 50.1231 195.348 50.1231 198.246C50.1231 201.143 49.4884 203.682 48.219 205.862C46.9772 208.014 45.1973 209.684 42.8793 210.87C40.5889 212.057 37.926 212.65 34.8904 212.65H24.7905V183.758H34.8904ZM34.6835 207.725C37.719 207.725 40.0646 206.897 41.7203 205.241C43.376 203.585 44.2039 201.253 44.2039 198.246C44.2039 195.238 43.376 192.892 41.7203 191.209C40.0646 189.497 37.719 188.642 34.6835 188.642H30.5855V207.725H34.6835ZM75.9855 212.65L69.6109 201.391H66.879V212.65H61.0839V183.758H71.9289C74.1642 183.758 76.0683 184.158 77.6412 184.958C79.2141 185.731 80.387 186.794 81.1596 188.146C81.9599 189.47 82.36 190.96 82.36 192.616C82.36 194.52 81.8081 196.244 80.7043 197.79C79.6005 199.308 77.9585 200.357 75.7785 200.936L82.6912 212.65H75.9855ZM66.879 197.045H71.722C73.2949 197.045 74.4678 196.673 75.2404 195.928C76.013 195.155 76.3994 194.092 76.3994 192.74C76.3994 191.416 76.013 190.395 75.2404 189.677C74.4678 188.932 73.2949 188.56 71.722 188.56H66.879V197.045ZM107.636 212.94C104.931 212.94 102.447 212.305 100.185 211.036C97.9226 209.767 96.1284 208.014 94.8038 205.779C93.4793 203.517 92.817 200.963 92.817 198.121C92.817 195.307 93.4793 192.782 94.8038 190.546C96.1284 188.284 97.9226 186.517 100.185 185.248C102.447 183.979 104.931 183.344 107.636 183.344C110.368 183.344 112.851 183.979 115.086 185.248C117.349 186.517 119.129 188.284 120.426 190.546C121.751 192.782 122.413 195.307 122.413 198.121C122.413 200.963 121.751 203.517 120.426 205.779C119.129 208.014 117.349 209.767 115.086 211.036C112.824 212.305 110.341 212.94 107.636 212.94ZM107.636 207.766C109.374 207.766 110.906 207.379 112.23 206.607C113.555 205.806 114.59 204.676 115.335 203.213C116.08 201.75 116.452 200.053 116.452 198.121C116.452 196.19 116.08 194.506 115.335 193.071C114.59 191.608 113.555 190.491 112.23 189.719C110.906 188.946 109.374 188.56 107.636 188.56C105.897 188.56 104.351 188.946 103 189.719C101.675 190.491 100.64 191.608 99.8952 193.071C99.1501 194.506 98.7776 196.19 98.7776 198.121C98.7776 200.053 99.1501 201.75 99.8952 203.213C100.64 204.676 101.675 205.806 103 206.607C104.351 207.379 105.897 207.766 107.636 207.766ZM154.417 192.699C154.417 194.245 154.044 195.693 153.299 197.045C152.581 198.397 151.436 199.487 149.863 200.315C148.317 201.143 146.359 201.557 143.985 201.557H139.142V212.65H133.347V183.758H143.985C146.221 183.758 148.125 184.145 149.698 184.917C151.271 185.689 152.444 186.752 153.216 188.104C154.017 189.456 154.417 190.988 154.417 192.699ZM143.737 196.88C145.337 196.88 146.525 196.521 147.297 195.803C148.069 195.058 148.456 194.023 148.456 192.699C148.456 189.884 146.883 188.477 143.737 188.477H139.142V196.88H143.737ZM201.302 183.758V188.435H193.603V212.65H187.808V188.435H180.109V183.758H201.302ZM229.87 207.145H218.363L216.458 212.65H210.374L220.763 183.717H227.51L237.9 212.65H231.774L229.87 207.145ZM228.297 202.509L224.116 190.422L219.935 202.509H228.297ZM265.709 212.65L259.458 202.923L253.787 212.65H247.247L256.354 198.08L247.123 183.758H253.787L260.038 193.444L265.667 183.758H272.207L263.142 198.287L272.373 212.65H265.709ZM289.2 183.758V212.65H283.405V183.758H289.2Z" fill="#444444"/>
</g>
<defs>
<clipPath id="clip0_8_11">
<rect width="300" height="300" fill="white"/>
</clipPath>
</defs>
</svg>
